<?xml version="1.0" encoding="UTF-8"?>
<!-- Generator: Adobe Illustrator 23.0.0, SVG Export Plug-In . SVG Version: 6.00 Build 0)  -->
<svg version="1.1" id="Layer_1" xmlns="http://www.w3.org/2000/svg" xmlns:xlink="http://www.w3.org/1999/xlink" x="0px" y="0px" viewBox="0 0 56.9 55.7" style="enable-background:new 0 0 56.9 55.7;width: 3rem;height: 3rem;" xml:space="preserve">
<style type="text/css">
	.st0{fill:#F46516;}
</style>
<g>
	<g>
		<path class="st0" d="M42.5,26.8h-9c-2.7,0-4.9-2.2-4.9-4.9v-9c0-2.7,2.2-4.9,4.9-4.9h9c2.7,0,4.9,2.2,4.9,4.9v9    C47.4,24.6,45.2,26.8,42.5,26.8z M33.4,10.9c-1,0-1.9,0.9-1.9,1.9v9c0,1,0.9,1.9,1.9,1.9h9c1,0,1.9-0.9,1.9-1.9v-9    c0-1-0.9-1.9-1.9-1.9H33.4z"/>
	</g>
	<g>
		<path class="st0" d="M20,26.8h-9c-2.7,0-4.9-2.2-4.9-4.9v-9c0-2.7,2.2-4.9,4.9-4.9h9c2.7,0,4.9,2.2,4.9,4.9v9    C24.9,24.6,22.7,26.8,20,26.8z M11,10.9c-1,0-1.9,0.9-1.9,1.9v9c0,1,0.9,1.9,1.9,1.9h9c1,0,1.9-0.9,1.9-1.9v-9    c0-1-0.9-1.9-1.9-1.9H11z"/>
	</g>
	<g>
		<path class="st0" d="M37.9,48c-5.2,0-9.4-4.2-9.4-9.4s4.2-9.4,9.4-9.4s9.4,4.2,9.4,9.4S43.1,48,37.9,48z M37.9,32.2    c-3.5,0-6.4,2.9-6.4,6.4s2.9,6.4,6.4,6.4s6.4-2.9,6.4-6.4S41.5,32.2,37.9,32.2z"/>
	</g>
	<g>
		<path class="st0" d="M20,48h-9c-2.7,0-4.9-2.2-4.9-4.9v-9c0-2.7,2.2-4.9,4.9-4.9h9c2.7,0,4.9,2.2,4.9,4.9v9    C24.9,45.8,22.7,48,20,48z M11,32.2c-1,0-1.9,0.9-1.9,1.9v9c0,1,0.9,1.9,1.9,1.9h9c1,0,1.9-0.9,1.9-1.9v-9c0-1-0.9-1.9-1.9-1.9H11    z"/>
	</g>
</g>
</svg>