<?xml version="1.0" encoding="utf-8"?>
<!-- Generator: Adobe Illustrator 23.0.0, SVG Export Plug-In . SVG Version: 6.00 Build 0)  -->
<svg version="1.1" id="Layer_1" xmlns="http://www.w3.org/2000/svg" xmlns:xlink="http://www.w3.org/1999/xlink" x="0px" y="0px"
	 viewBox="0 0 54.2 54.2" style="enable-background:new 0 0 54.2 54.2;" xml:space="preserve">
<style type="text/css">
	.st0{fill:#F46516;}
	.st1{fill:#FFFFFF;}
</style>
<circle class="st0" cx="27.2" cy="28.4" r="25.1"/>
<g>
	<path class="st1" d="M36.6,17.2h-4.9v-0.9c0-1.5-1.2-2.7-2.7-2.7h-3.6c-1.5,0-2.7,1.2-2.7,2.7v0.9h-4.9c-1.2,0-2.2,1-2.2,2.2v3.1
		c0,0.5,0.4,0.9,0.9,0.9H17l0.8,16.2c0.1,1.4,1.2,2.6,2.7,2.6H34c1.4,0,2.6-1.1,2.7-2.6l0.8-16.2H38c0.5,0,0.9-0.4,0.9-0.9v-3.1
		C38.9,18.2,37.9,17.2,36.6,17.2L36.6,17.2z M24.5,16.3c0-0.5,0.4-0.9,0.9-0.9H29c0.5,0,0.9,0.4,0.9,0.9v0.9h-5.4V16.3z M17.4,19.4
		c0-0.2,0.2-0.4,0.4-0.4h18.8c0.2,0,0.4,0.2,0.4,0.4v2.2c-0.3,0-18.5,0-19.7,0V19.4z M34.9,39.6c0,0.5-0.4,0.9-0.9,0.9H20.4
		c-0.5,0-0.9-0.4-0.9-0.9l-0.8-16.1h16.9L34.9,39.6z"/>
	<path class="st1" d="M27.2,38.7c0.5,0,0.9-0.4,0.9-0.9V26.2c0-0.5-0.4-0.9-0.9-0.9s-0.9,0.4-0.9,0.9v11.6
		C26.3,38.3,26.7,38.7,27.2,38.7z"/>
	<path class="st1" d="M31.7,38.7c0.5,0,0.9-0.4,0.9-0.9V26.2c0-0.5-0.4-0.9-0.9-0.9s-0.9,0.4-0.9,0.9v11.6
		C30.8,38.3,31.2,38.7,31.7,38.7z"/>
	<path class="st1" d="M22.8,38.7c0.5,0,0.9-0.4,0.9-0.9V26.2c0-0.5-0.4-0.9-0.9-0.9c-0.5,0-0.9,0.4-0.9,0.9v11.6
		C21.9,38.3,22.3,38.7,22.8,38.7z"/>
</g>
</svg>
