<svg xmlns="http://www.w3.org/2000/svg" viewBox="0 0 50.25 50.25"><defs><style>.cls-1{fill:#f46516;}.cls-2{fill:#fff;}</style></defs><title>edit</title><g id="Layer_2" data-name="Layer 2"><g id="Layer_1-2" data-name="Layer 1"><circle class="cls-1" cx="25.13" cy="25.13" r="25.13"/><path class="cls-2" d="M34.6,24.67a1.22,1.22,0,0,0-1.22,1.22v9.77a1.23,1.23,0,0,1-1.23,1.22H15.06a1.22,1.22,0,0,1-1.22-1.22V18.57a1.22,1.22,0,0,1,1.22-1.22h9.77a1.22,1.22,0,1,0,0-2.44H15.06a3.66,3.66,0,0,0-3.66,3.66V35.66a3.66,3.66,0,0,0,3.66,3.66H32.15a3.67,3.67,0,0,0,3.67-3.66V25.89A1.22,1.22,0,0,0,34.6,24.67Z"/><path class="cls-2" d="M22.85,23.56a.56.56,0,0,0-.17.31l-.86,4.32a.61.61,0,0,0,.16.55.62.62,0,0,0,.44.18h.11L26.85,28a.58.58,0,0,0,.31-.16l9.66-9.66L32.51,13.9Z"/><path class="cls-2" d="M39.81,10.92a3,3,0,0,0-4.32,0L33.8,12.61l4.32,4.31,1.69-1.69a3.05,3.05,0,0,0,0-4.31Z"/></g></g></svg>