<svg xmlns="http://www.w3.org/2000/svg" viewBox="0 0 31.84 31.84"><defs><style>.cls-1{fill:#fff;}.cls-2{fill:#e22b8b;}</style></defs><title>insta fotor</title><g id="Layer_2" data-name="Layer 2"><g id="Layer_1-2" data-name="Layer 1"><circle class="cls-1" cx="15.92" cy="15.92" r="15.92"/><g id="Instagram-6"><path class="cls-2" d="M16.53,8.73c2.24,0,2.52,0,3.41,0a4.59,4.59,0,0,1,1.56.29,2.69,2.69,0,0,1,1.6,1.6,4.59,4.59,0,0,1,.29,1.56c0,.89,0,1.17,0,3.41s0,2.52,0,3.41a4.59,4.59,0,0,1-.29,1.56,2.69,2.69,0,0,1-1.6,1.6,4.59,4.59,0,0,1-1.56.29c-.89,0-1.17,0-3.41,0s-2.52,0-3.41,0a4.59,4.59,0,0,1-1.56-.29,2.8,2.8,0,0,1-1.6-1.6A4.59,4.59,0,0,1,9.67,19c0-.89,0-1.17,0-3.41s0-2.52,0-3.41A4.59,4.59,0,0,1,10,10.65a2.8,2.8,0,0,1,1.6-1.6,4.59,4.59,0,0,1,1.56-.29c.89,0,1.14,0,3.41,0m0-1.53c-2.31,0-2.59,0-3.48,0A5.84,5.84,0,0,0,11,7.63,4.29,4.29,0,0,0,8.5,10.11a5.88,5.88,0,0,0-.39,2.06c0,.89,0,1.21,0,3.48s0,2.6,0,3.49a6.5,6.5,0,0,0,.43,2A4.29,4.29,0,0,0,11,23.65a5.88,5.88,0,0,0,2.06.39c.89,0,1.18,0,3.48,0s2.6,0,3.49,0a5.88,5.88,0,0,0,2.06-.39,4.29,4.29,0,0,0,2.48-2.49A5.84,5.84,0,0,0,25,19.1c0-.89,0-1.21,0-3.48s0-2.59,0-3.48a5.84,5.84,0,0,0-.39-2.06,4.29,4.29,0,0,0-2.48-2.49,5.88,5.88,0,0,0-2.06-.39Z"/><path class="cls-2" d="M16.53,11.32a4.34,4.34,0,1,0,4.33,4.33,4.34,4.34,0,0,0-4.33-4.33Zm0,7.14a2.81,2.81,0,1,1,2.81-2.81h0A2.79,2.79,0,0,1,16.53,18.46Z"/><circle class="cls-2" cx="21.04" cy="11.14" r="1.03"/></g></g></g></svg>