<svg xmlns="http://www.w3.org/2000/svg" viewBox="0 0 51.45 46.09"><defs><style>.cls-1{fill:#fff;fill-rule:evenodd;}</style></defs><title>levant fotor</title><g id="Layer_2" data-name="Layer 2"><g id="Layer_1-2" data-name="Layer 1"><polygon class="cls-1" points="8.01 13.63 25.83 31.13 41.16 15.75 37.78 12.31 25.77 24.2 11.65 9.93 8.01 13.63"/><path class="cls-1" d="M16.24,9.46,19.71,13q4.77-4.68,9.47-9.44L25.77,0l-.61.55Z"/><polygon class="cls-1" points="22.28 15.52 25.75 19.01 35.14 9.57 31.72 6.11 22.28 15.52"/><path class="cls-1" d="M36.24,42.1l4.72,4H42.3v-6H41L41,44c-.25-.16-.42-.32-.68-.52l-4.41-3.39h-1v6h1.33Z"/><polygon class="cls-1" points="0 46.09 7.1 46.08 7.1 44.71 1.58 44.69 1.59 38.81 0 38.81 0 46.09"/><polygon class="cls-1" points="28.78 41.8 31.28 46.08 32.89 46.08 29.23 40.12 28.3 40.12 24.92 46.08 26.36 46.09 28.78 41.8"/><polygon class="cls-1" points="44.22 41.2 47.1 41.2 47.1 46.06 48.56 46.09 48.56 41.22 51.45 41.2 51.45 40.12 44.22 40.15 44.22 41.2"/><polygon class="cls-1" points="11.38 46.04 15.42 43.8 14.94 42.82 10.88 45.16 11.38 46.04"/><polygon class="cls-1" points="8.64 41.14 9.1 42.01 13.08 39.78 12.61 38.9 8.64 41.14"/><polygon class="cls-1" points="9.76 43.08 10.22 43.92 12.47 42.67 11.97 41.83 9.76 43.08"/><polygon class="cls-1" points="20.47 44.4 22.97 40.13 24.59 40.13 20.92 46.09 19.99 46.08 16.61 40.12 18.06 40.12 20.47 44.4"/></g></g></svg>