<?xml version="1.0" encoding="utf-8"?>
<!-- Generator: Adobe Illustrator 23.0.0, SVG Export Plug-In . SVG Version: 6.00 Build 0)  -->
<svg version="1.1" id="Layer_1" xmlns="http://www.w3.org/2000/svg" xmlns:xlink="http://www.w3.org/1999/xlink" x="0px" y="0px"
	 viewBox="0 0 262.8 100" style="enable-background:new 0 0 262.8 100;" xml:space="preserve">
<style type="text/css">
	.st0{fill:#F46516;}
	.st1{fill:#FFFFFF;}
</style>
<g>
	<path class="st0" d="M178.9,77.4H17.5c-4.9,0-8.9-4-8.9-8.9V30.2c0-4.9,4-8.9,8.9-8.9h161.4c4.9,0,8.9,4,8.9,8.9v38.3
		C187.8,73.4,183.8,77.4,178.9,77.4z"/>
	<path class="st1" d="M61.2,30v38.7h-9.4V44.9C51.3,46,50.7,47,50.1,48l-6.4,10.5h-5.9L31.1,48l-1.4-2.5v23.2h-9.4V30h9.2l11.3,17.9
		L52,30H61.2z"/>
	<path class="st1" d="M83.9,62c4,0,6.4-0.5,9.5-1.6v7.4c-3.3,1.2-6.5,1.7-11.1,1.7c-10,0-15.6-5.5-15.6-14.9
		c0-9.5,5.5-15.8,14.9-15.8c7.6,0,13.1,4.2,13.1,13.6c0,1.5,0,3.1-0.1,4.7h-18C77.3,60.5,79.6,62,83.9,62z M76.6,51.2h9.2
		c-0.1-3.3-1.9-4.6-4.3-4.6C79,46.6,77.2,47.9,76.6,51.2z"/>
	<path class="st1" d="M128.6,50.9v17.8h-9.7V51.6c0-3.4-1.5-4.7-4.2-4.7c-1.8,0-3.4,0.7-4.9,2v19.8h-9.7V39.7h8.1l0.5,2.2
		c2.5-2.2,5.4-3,8.7-3C125.1,38.8,128.6,42.9,128.6,50.9z"/>
	<path class="st1" d="M163,39.7v29.1h-8.1l-0.4-2.3c-2.7,2.2-5.8,3.1-9.3,3.1c-7.7,0-10.3-4-10.3-12.2V39.7h9.7v16.5
		c0,3.2,1.1,4.7,3.7,4.7c1.7,0,3.4-0.6,5-2.1V39.7H163z"/>
	<path class="st1" d="M168.4,64c0-3.7,2.5-5.5,6.2-5.5c3.7,0,6.2,1.9,6.2,5.5c0,3.8-2.5,5.6-6.2,5.6C170.9,69.5,168.4,67.7,168.4,64
		z"/>
	<path class="st1" d="M194.9,67.8v-7.9c3,1.5,7,2.3,10.6,2.3c3.9,0,5.2-0.5,5.2-1.9c0-1.3-0.8-1.8-6.5-2.7c-6-1.1-9.4-3.6-9.4-9
		c0-6.3,4.4-9.7,13-9.7c4.3,0,7.5,0.4,10.8,1.6v7.5c-3.5-1.2-6.9-1.7-10.2-1.7c-3.3,0-4.5,0.5-4.5,1.7c0,1.2,0.7,1.5,6.3,2.5
		c6.9,1.2,10,3.4,10,9.4c0,6.5-4.7,9.7-13.8,9.7C201.9,69.5,197.6,68.9,194.9,67.8z"/>
	<path class="st1" d="M254.1,39.7l-11.6,28.8l-4.2,10.7h-9.5l4.5-10.6l-11.7-28.9h10.8l5.8,18.3l5.5-18.3H254.1z"/>
</g>
</svg>
