<svg xmlns="http://www.w3.org/2000/svg" viewBox="0 0 31.84 31.84"><defs><style>.cls-1{fill:#fff;}.cls-2{fill:#e22b8b;fill-rule:evenodd;}</style></defs><title>phone fotor</title><g id="Layer_2" data-name="Layer 2"><g id="Layer_1-2" data-name="Layer 1"><circle class="cls-1" cx="15.92" cy="15.92" r="15.92"/><g id="WhatsApp-11"><g id="whatsApp-12"><path class="cls-2" d="M23.76,19.36c-.13-.21-.34-.28-.76-.49s-2.44-1.18-2.79-1.32-.62-.21-.9.21A17.33,17.33,0,0,1,18,19.36c-.28.28-.49.28-.91.07a13,13,0,0,1-3.34-2,13.38,13.38,0,0,1-2.3-2.85.6.6,0,0,1,.14-.84h0c.21-.21.42-.49.63-.7a5.22,5.22,0,0,0,.42-.69.64.64,0,0,0,0-.7c-.14-.21-.91-2.23-1.25-3.06s-.7-.7-.91-.7H9.7a1.65,1.65,0,0,0-1.11.49,4.66,4.66,0,0,0-1.46,3.41A8,8,0,0,0,8.8,16c.21.28,2.92,4.45,7,6.19a23.77,23.77,0,0,0,2.37.91,5.34,5.34,0,0,0,2.57.14c.77-.14,2.44-1,2.79-2A2.39,2.39,0,0,0,23.76,19.36Z"/></g></g></g></g></svg>