<svg xmlns="http://www.w3.org/2000/svg" viewBox="0 0 41.69 42.79"><defs><style>.cls-1{fill:#f46516;}</style></defs><title>recite</title><g id="Layer_2" data-name="Layer 2"><g id="Layer_1-2" data-name="Layer 1"><path class="cls-1" d="M41.68,1.22s0,0,0,0a2.27,2.27,0,0,0-.06-.25,1.94,1.94,0,0,0-.05-.2,1.6,1.6,0,0,0-.16-.23S41.35.4,41.31.36a1.7,1.7,0,0,0-.26-.18A1.48,1.48,0,0,0,40.92.1a1.29,1.29,0,0,0-.48-.1H13.83C11,.29,5.71,2.37,5.71,8.24V33c0,5.16-1.29,7.26-4.46,7.26a1.25,1.25,0,0,0,0,2.5H25.53c6.48,0,9.17-6.36,9.17-9.76V14.53a8.1,8.1,0,0,0,5.08-1.74,5.89,5.89,0,0,0,1.91-4.65V1.25S41.68,1.23,41.68,1.22ZM32.2,33c0,2.45-2,7.26-6.67,7.26h-19C8.21,37.93,8.21,34.53,8.21,33V8.24C8.21,3.38,13.4,2.58,14,2.5H34.64A7.5,7.5,0,0,0,32.2,8.24Zm5.93-22.12A5.51,5.51,0,0,1,34.7,12V8.24c0-3.55,2.75-4.93,4.49-5.45V8.14A3.49,3.49,0,0,1,38.13,10.91Z"/><path class="cls-1" d="M26.21,32.77H12.68a1.25,1.25,0,0,0,0,2.5H26.21a1.25,1.25,0,0,0,0-2.5Z"/><path class="cls-1" d="M26.21,25.79H12.68a1.25,1.25,0,0,0,0,2.5H26.21a1.25,1.25,0,0,0,0-2.5Z"/><path class="cls-1" d="M26.21,18.81H12.68a1.25,1.25,0,1,0,0,2.5H26.21a1.25,1.25,0,0,0,0-2.5Z"/><path class="cls-1" d="M26.21,11.83H12.68a1.25,1.25,0,0,0,0,2.5H26.21a1.25,1.25,0,0,0,0-2.5Z"/></g></g></svg>